<?xml version="1.0" encoding="iso-8859-1"?>
<!-- Generator: Adobe Illustrator 14.0.0, SVG Export Plug-In  -->
<!DOCTYPE svg PUBLIC "-//W3C//DTD SVG 1.1//EN" "http://www.w3.org/Graphics/SVG/1.1/DTD/svg11.dtd" [
	<!ENTITY ns_flows "http://ns.adobe.com/Flows/1.0/">
]>
<svg version="1.1"
	 xmlns="http://www.w3.org/2000/svg" xmlns:xlink="http://www.w3.org/1999/xlink" xmlns:a="http://ns.adobe.com/AdobeSVGViewerExtensions/3.0/"
	 x="0px" y="0px" width="170px" height="45px" viewBox="0 0 170 45" enable-background="new 0 0 170 45" xml:space="preserve">
<defs>
</defs>
<path fill="#F75B2B" d="M170,41c0,2.209-1.791,4-4,4H4c-2.209,0-4-1.791-4-4V4c0-2.209,1.791-4,4-4h162c2.209,0,4,1.791,4,4V41z"/>
<linearGradient id="SVGID_1_" gradientUnits="userSpaceOnUse" x1="85.4165" y1="-26.6665" x2="85.4165" y2="21.8341">
	<stop  offset="0" style="stop-color:#FFFFFF"/>
	<stop  offset="1" style="stop-color:#FF602E"/>
</linearGradient>
<rect x="3.333" y="3.334" fill="url(#SVGID_1_)" width="164.167" height="18.333"/>
<text transform="matrix(1 0 0 1 60.5 29.0005)" fill="#FFFFFF" font-family="'Arial'" font-size="21">Esgotado</text>
<path display="none" fill="#FFFFFF" d="M43.141,11.954c-0.282-0.324-0.686-0.509-1.113-0.509H21.683l-0.288-1.714
	c-0.117-0.709-0.731-1.23-1.451-1.23h-3.313c-0.814,0-1.472,0.658-1.472,1.472c0,0.814,0.658,1.472,1.472,1.472h2.065l2.739,16.437
	c0.011,0.065,0.045,0.12,0.066,0.183c0.024,0.077,0.042,0.15,0.079,0.223c0.047,0.096,0.111,0.178,0.177,0.263
	c0.046,0.058,0.087,0.113,0.14,0.165c0.085,0.079,0.184,0.136,0.284,0.19c0.056,0.031,0.104,0.073,0.165,0.096
	c0.171,0.071,0.351,0.111,0.541,0.111c0.001,0,16.196,0,16.196,0c0.814,0,1.473-0.659,1.473-1.473s-0.659-1.472-1.473-1.472H24.136
	l-0.244-1.473h16.664c0.733,0,1.354-0.539,1.458-1.263l1.472-10.305C43.546,12.702,43.419,12.273,43.141,11.954z M40.331,14.389
	l-0.42,2.945h-5.245v-2.945H40.331z M33.194,14.389v2.945h-4.417v-2.945H33.194z M33.194,18.806v2.944h-4.417v-2.944H33.194z
	 M27.306,14.389v2.945h-4.417c-0.078,0-0.149,0.023-0.218,0.043l-0.498-2.988H27.306z M22.91,18.806h4.396v2.944H23.4L22.91,18.806z
	 M34.667,21.75v-2.944h5.032l-0.42,2.944H34.667z"/>
<circle display="none" fill="#FFFFFF" cx="25.097" cy="32.792" r="2.208"/>
<circle display="none" fill="#FFFFFF" cx="38.347" cy="32.792" r="2.208"/>
<path fill="#BF3D27" d="M31.367,9.667c-7.881,0-14.27,6.389-14.27,14.271s6.389,14.27,14.27,14.27
	c7.881,0,14.271-6.388,14.271-14.27S39.249,9.667,31.367,9.667z M31.367,36.191c-6.767,0-12.252-5.486-12.252-12.253
	c0-6.767,5.486-12.253,12.252-12.253c6.767,0,12.253,5.486,12.253,12.253C43.62,30.705,38.134,36.191,31.367,36.191z"/>
<circle fill="#BF3D27" cx="31.368" cy="23.938" r="11.039"/>
<polygon fill="#FFFFFF" points="37.979,27.193 34.623,30.547 31.367,27.294 28.112,30.547 24.756,27.193 28.011,23.938 
	24.756,20.683 28.112,17.327 31.367,20.583 34.623,17.327 37.979,20.683 34.723,23.938 "/>
</svg>
