<?xml version="1.0" encoding="utf-8"?>
<!-- Generator: Adobe Illustrator 15.0.0, SVG Export Plug-In . SVG Version: 6.00 Build 0)  -->
<!DOCTYPE svg PUBLIC "-//W3C//DTD SVG 1.1//EN" "http://www.w3.org/Graphics/SVG/1.1/DTD/svg11.dtd">
<svg version="1.1" xmlns="http://www.w3.org/2000/svg" xmlns:xlink="http://www.w3.org/1999/xlink" x="0px" y="0px" width="50px"
	 height="50px" viewBox="0 0 50 50" enable-background="new 0 0 50 50" xml:space="preserve">
<g id="Layer_1">
</g>
<g id="Layer_2">
	<g>
		<path d="M40.336,10.883c-2.447-4.95-8.252-0.456-8.252-0.456s-5.804,5.406-11.266,5.635c-1.764,0.112-3.3,0-3.3,0
			s-8.194-0.285-8.08,8.021c0.113,8.309,7.168,8.594,7.168,8.594s3.017-0.058,3.244-0.114c-3.129-7.624,1.082-13.941,1.082-13.941
			s-2.732,7.853,1.365,13.941c3.074,0.911,5.577,2.617,10.869,6.203c5.291,3.585,7.738-2.333,7.738-2.333
			S47.336,24.881,40.336,10.883z M39.483,34.157c-2.05,5.975-4.668,1.765-4.668,1.765s-5.291-9.105-0.909-21.794
			c2.333-6.146,5.007-0.285,5.007-0.285S43.237,24.769,39.483,34.157z"/>
		<path d="M20.477,34.499c0,0-4.438,0.567-6.317-0.513c-0.454,2.674,1.367,7.854,1.367,7.854
			s0.568,1.706,2.845,0.966c2.276-0.739,3.529-1.593,3.529-1.593s1.421-0.684,0.283-2.617C21.045,36.66,20.477,34.499,20.477,34.499
			z"/>
	</g>
</g>
</svg>
