<?xml version="1.0" encoding="utf-8"?>
<!-- Generator: Adobe Illustrator 15.0.0, SVG Export Plug-In . SVG Version: 6.00 Build 0)  -->
<!DOCTYPE svg PUBLIC "-//W3C//DTD SVG 1.1//EN" "http://www.w3.org/Graphics/SVG/1.1/DTD/svg11.dtd">
<svg version="1.1" id="Layer_1" xmlns="http://www.w3.org/2000/svg" xmlns:xlink="http://www.w3.org/1999/xlink" x="0px" y="0px"
	 width="57px" height="57px" viewBox="0 0 57 57" enable-background="new 0 0 57 57" xml:space="preserve">
<g>
	<path d="M38.362,17.283c-0.788-2.084-3.118-3.135-5.202-2.346L2.957,26.355c-2.083,0.789-3.136,3.117-2.347,5.201
		l6.848,18.109c0.788,2.084,3.116,3.137,5.201,2.346l1.941-0.733v-9.638l-2.044,0.771c-0.523,0.195-1.108-0.068-1.306-0.591
		c-0.196-0.522,0.067-1.107,0.592-1.306l2.758-1.038v-8.908c0-2.545,2.064-4.61,4.61-4.61h22.433L38.362,17.283z M13.758,35.062
		L9.722,36.61c-0.323,0.123-0.685-0.038-0.807-0.359l-1.548-4.036c-0.124-0.321,0.037-0.685,0.361-0.809l4.035-1.548
		c0.322-0.123,0.685,0.037,0.808,0.36l1.548,4.034C14.242,34.577,14.081,34.939,13.758,35.062z"/>
	<path d="M52.313,27.22H20.021c-2.228,0-4.035,1.807-4.035,4.036v19.359c0,2.229,1.807,4.035,4.035,4.035h32.292
		c2.228,0,4.034-1.807,4.034-4.035V31.256C56.348,29.026,54.541,27.22,52.313,27.22z M54.705,50.7c0,1.274-1.033,2.307-2.308,2.307
		H20.293c-1.275,0-2.307-1.032-2.307-2.307V31.169c0-1.274,1.032-2.306,2.307-2.306h32.104c1.274,0,2.308,1.032,2.308,2.306V50.7z"
		/>
	<rect x="17.702" y="34.076" width="37.146" height="5.859"/>
	<path d="M39.06,44.043c0,0.611-0.495,1.106-1.106,1.106H21.595c-0.613,0-1.107-0.495-1.107-1.106l0,0
		c0-0.61,0.494-1.107,1.107-1.107h16.358C38.564,42.936,39.06,43.433,39.06,44.043L39.06,44.043z"/>
</g>
</svg>
