<?xml version="1.0" encoding="utf-8"?>
<!-- Generator: Adobe Illustrator 15.0.0, SVG Export Plug-In . SVG Version: 6.00 Build 0)  -->
<!DOCTYPE svg PUBLIC "-//W3C//DTD SVG 1.1//EN" "http://www.w3.org/Graphics/SVG/1.1/DTD/svg11.dtd">
<svg version="1.1" id="Layer_1" xmlns="http://www.w3.org/2000/svg" xmlns:xlink="http://www.w3.org/1999/xlink" x="0px" y="0px"
	 width="57px" height="57px" viewBox="0 0 57 57" enable-background="new 0 0 57 57" xml:space="preserve">
<g>
	<circle cx="43.064" cy="50.849" r="5.151"/>
	<circle cx="15.725" cy="50.849" r="5.151"/>
	<path d="M53.174,35.614c-0.491-0.905-4.318-7.868-5.436-9.618c-1.117-1.75-3.146-1.578-3.146-1.578h-6.438v-5.716
		c0-1.24-1.006-2.246-2.245-2.246H5.314c-1.24,0-2.246,1.006-2.246,2.246v28.783c0,1.241,1.006,2.247,2.246,2.247h3.467
		c0.535-3.354,3.439-5.916,6.944-5.916c3.504,0,6.408,2.562,6.943,5.916H35.91c0.029,0,0.059-0.003,0.087-0.006h0.124
		c0.537-3.35,3.441-5.91,6.943-5.91c3.503,0,6.404,2.561,6.942,5.91h1.546c0,0,2.24-0.039,2.24-2.152c0-2.112,0-8.755,0-8.755
		S53.664,36.518,53.174,35.614z M40.094,37.995v-9.713h4.704c0,0,0.83,0.112,1.281,1.017c0.453,0.903,4.668,8.771,4.668,8.771
		L40.094,37.995z"/>
</g>
</svg>
