<?xml version="1.0" encoding="utf-8"?>
<!-- Generator: Adobe Illustrator 15.0.0, SVG Export Plug-In . SVG Version: 6.00 Build 0)  -->
<!DOCTYPE svg PUBLIC "-//W3C//DTD SVG 1.1//EN" "http://www.w3.org/Graphics/SVG/1.1/DTD/svg11.dtd">
<svg version="1.1" id="Layer_1" xmlns="http://www.w3.org/2000/svg" xmlns:xlink="http://www.w3.org/1999/xlink" x="0px" y="0px"
	 width="24px" height="24px" viewBox="0 0 24 24" enable-background="new 0 0 24 24" xml:space="preserve">
<g>
	<path fill="#3C3C3C" d="M2.645,7.306l8.562,8.662c0,0,0.826,0.958,1.785,0c0.33-0.364,8.495-8.728,8.495-8.728l1.389,0.099
		l-0.133,1.125c0,0-8.859,8.892-9.057,9.057c-1.687,1.356-3.24,0-3.24,0L1.355,8.43V6.975L2.645,7.306z"/>
	<polygon fill="#3C3C3C" points="7.901,14.678 1.389,21.455 1.322,22.876 2.811,22.512 9.157,15.967 	"/>
	<polygon fill="#3C3C3C" points="16.066,14.678 22.578,21.455 22.645,22.876 21.157,22.512 14.811,15.967 	"/>
	<path fill="#3C3C3C" d="M0,5.851V24h24V5.851H0z M22.313,22.347H1.687V7.504h20.627V22.347z"/>
</g>
</svg>
